<?xml version="1.0" standalone="no"?>
<!DOCTYPE svg PUBLIC "-//W3C//DTD SVG 20010904//EN"
 "http://www.w3.org/TR/2001/REC-SVG-20010904/DTD/svg10.dtd">
<svg version="1.0" xmlns="http://www.w3.org/2000/svg"
 width="80.000000pt" height="80.000000pt" viewBox="0 0 80.000000 80.000000"
 preserveAspectRatio="xMidYMid meet">

<g transform="translate(0.000000,80.000000) scale(0.100000,-0.100000)"
fill="#000000" stroke="none">
<path d="M343 788 c-46 -10 -113 -64 -113 -92 0 -14 20 -16 175 -16 155 0 175
2 175 16 0 30 -66 82 -120 93 -58 12 -59 12 -117 -1z"/>
<path d="M182 648 c-15 -15 -15 -61 0 -76 7 -7 37 -12 67 -12 43 0 60 5 79 23
18 17 35 22 77 22 42 0 59 -5 77 -22 19 -18 36 -23 79 -23 30 0 60 5 67 12 15
15 15 61 0 76 -17 17 -429 17 -446 0z"/>
<path d="M365 576 c-91 -40 -60 -178 40 -178 104 0 131 147 34 181 -39 13 -37
13 -74 -3z m100 -31 c33 -32 33 -78 0 -110 -33 -34 -87 -34 -120 0 -52 51 -15
135 60 135 25 0 44 -8 60 -25z"/>
<path d="M347 514 c-4 -4 -7 -19 -7 -33 0 -15 3 -21 8 -15 4 7 16 13 27 15 26
5 26 33 0 37 -12 2 -24 0 -28 -4z m33 -14 c0 -5 -7 -10 -16 -10 -8 0 -12 5 -9
10 3 6 10 10 16 10 5 0 9 -4 9 -10z"/>
<path d="M417 514 c-4 -4 -6 -19 -6 -33 1 -17 3 -20 6 -8 2 9 11 17 19 17 8 0
14 -8 14 -17 0 -15 2 -16 10 -3 5 8 9 24 9 35 0 11 -3 14 -6 8 -6 -16 -30 -17
-35 -2 -2 5 -7 7 -11 3z"/>
<path d="M154 505 c-15 -23 -15 -27 0 -50 14 -22 24 -25 74 -25 l57 0 0 50 0
50 -57 0 c-50 0 -60 -3 -74 -25z"/>
<path d="M525 480 l0 -50 55 0 c62 0 80 11 80 50 0 39 -18 50 -79 50 l-56 0 0
-50z"/>
<path d="M182 388 c-15 -15 -15 -61 0 -76 17 -17 429 -17 446 0 15 15 15 61 0
76 -19 19 -119 15 -163 -8 -22 -11 -49 -20 -60 -20 -11 0 -38 9 -60 20 -44 23
-144 27 -163 8z"/>
<path d="M230 261 c0 -20 46 -65 84 -82 81 -37 196 -15 244 46 12 15 22 32 22
36 0 5 -79 9 -175 9 -96 0 -175 -4 -175 -9z"/>
<path d="M198 50 c-3 -17 -1 -30 4 -30 4 0 8 4 8 9 0 5 9 11 20 14 20 5 29 37
10 37 -5 0 -7 -7 -4 -15 4 -10 0 -15 -11 -15 -11 0 -15 5 -11 15 3 8 2 15 -3
15 -5 0 -11 -13 -13 -30z"/>
<path d="M410 68 c0 -9 -3 -25 -6 -35 -5 -17 -5 -17 9 0 18 22 37 22 37 0 0
-22 6 -14 14 20 6 26 5 27 -14 15 -17 -11 -22 -10 -30 2 -8 13 -10 13 -10 -2z"/>
<path d="M273 59 c-6 -6 -9 -18 -6 -25 8 -22 22 -16 16 6 -3 11 0 20 6 20 6 0
11 -6 11 -14 0 -26 15 -25 16 0 2 26 -23 33 -43 13z"/>
<path d="M341 53 c-1 -14 5 -23 14 -23 8 0 15 -6 16 -12 0 -7 5 -2 10 11 5 13
8 29 5 35 -2 6 -5 3 -5 -6 -1 -10 -7 -18 -15 -18 -8 0 -17 8 -19 18 -4 13 -5
11 -6 -5z"/>
<path d="M487 63 c-4 -3 -7 -16 -6 -27 0 -19 1 -19 10 3 10 24 8 36 -4 24z"/>
<path d="M514 57 c3 -10 6 -23 6 -28 0 -19 17 -8 29 19 10 24 10 25 -3 9 -14
-18 -15 -18 -26 0 -11 17 -11 17 -6 0z"/>
<path d="M574 55 c-7 -17 3 -35 19 -35 8 0 8 3 2 8 -21 15 -16 34 6 27 15 -5
19 -4 15 4 -10 16 -36 14 -42 -4z"/>
</g>
</svg>
